<?xml version="1.0" encoding="UTF-8"?>
<svg width="100px" height="100px" viewBox="0 0 100 100" version="1.1" xmlns="http://www.w3.org/2000/svg">
    <title>Búzio</title>
    <defs>
        <linearGradient x1="0%" y1="0%" x2="100%" y2="100%" id="shellGradient">
            <stop stop-color="#f5eed5" offset="0%"></stop>
            <stop stop-color="#d1ba89" offset="100%"></stop>
        </linearGradient>
    </defs>
    <g stroke="none" stroke-width="1" fill="none" fill-rule="evenodd">
        <path d="M70.5,24.2 C64.2,16.3 58.7,11.2 53.6,10.1 C48.6,9 42.2,10.5 35.7,14.5 C28.9,18.6 23.6,24.4 20.4,31.2 C17.4,37.6 16.9,44.2 18.9,49.4 C21,54.9 26.3,60.1 34.5,64.6 C39.7,67.4 45.1,68.5 50.4,68 C55.5,67.5 60.4,65.6 64.7,62.5 C69.2,59.2 72.9,54.7 75.3,49.5 C78.2,43.5 78.8,36.9 76.8,31.7 C75.4,28.2 73.2,25.6 70.5,24.2 Z" fill="url(#shellGradient)" fill-rule="nonzero"></path>
        <path d="M41.9,36 C39.6,36.5 37.6,37.8 36.2,39.7 C34.8,41.6 34.2,43.9 34.5,46.1 C34.8,48.3 36,50.2 37.8,51.5 C39.6,52.8 41.9,53.2 44.1,52.7 C46.4,52.2 48.4,50.9 49.8,49 C51.2,47.1 51.8,44.8 51.5,42.6 C51.2,40.4 50,38.5 48.2,37.2 C46.4,35.9 44.1,35.5 41.9,36 Z" fill="#e5d6b9" fill-rule="nonzero"></path>
        <path d="M67.5,31.5 C65.7,30.2 63.4,29.8 61.2,30.3 C58.9,30.8 56.9,32.1 55.5,34 C54.1,35.9 53.5,38.2 53.8,40.4 C54.1,42.6 55.3,44.5 57.1,45.8 C58.9,47.1 61.2,47.5 63.4,47 C65.7,46.5 67.7,45.2 69.1,43.3 C70.5,41.4 71.1,39.1 70.8,36.9 C70.5,34.7 69.3,32.8 67.5,31.5 Z" fill="#e5d6b9" fill-rule="nonzero"></path>
        <path d="M31.5,44.5 C30.3,44.8 29.3,45.6 28.6,46.6 C27.9,47.6 27.6,48.8 27.8,50 C28,51.2 28.6,52.2 29.5,52.9 C30.4,53.6 31.5,53.8 32.7,53.5 C33.9,53.2 34.9,52.4 35.6,51.4 C36.3,50.4 36.6,49.2 36.4,48 C36.2,46.8 35.6,45.8 34.7,45.1 C33.8,44.4 32.7,44.2 31.5,44.5 Z" fill="#e5d6b9" fill-rule="nonzero"></path>
    </g>
</svg>