<?xml version="1.0" encoding="UTF-8"?>
<svg width="400" height="400" viewBox="0 0 400 400" fill="none" xmlns="http://www.w3.org/2000/svg">
  <!-- Fundo verde para Oxóssi - orixá das matas -->
  <rect width="400" height="400" fill="#008000"/>
  
  <!-- Figura representando Oxóssi com base na imagem fornecida -->
  <path d="M200 100 C 170 100, 150 150, 150 200 C 150 250, 170 300, 200 350 C 230 300, 250 250, 250 200 C 250 150, 230 100, 200 100 Z" fill="#228B22" stroke="#006400" stroke-width="2"/>
  
  <!-- Arco e flecha - símbolos de Oxóssi -->
  <path d="M150 180 C 180 150, 220 150, 250 180" stroke="#CD853F" stroke-width="8" fill="none"/>
  <line x1="200" y1="150" x2="200" y2="230" stroke="#CD853F" stroke-width="3"/>
  
  <!-- Chapéu/Capacete -->
  <path d="M170 120 C 180 90, 220 90, 230 120 L 230 140 C 220 130, 180 130, 170 140 Z" fill="#DAA520"/>
  
  <!-- Penas características -->
  <path d="M170 100 C 150 80, 140 60, 150 40" stroke="#FFFFFF" stroke-width="3"/>
  <path d="M230 100 C 250 80, 260 60, 250 40" stroke="#FFFFFF" stroke-width="3"/>
  
  <!-- Nome -->
  <text x="200" y="380" font-family="Arial, sans-serif" font-size="36" font-weight="bold" fill="white" text-anchor="middle">OXÓSSI</text>
</svg>