<?xml version="1.0" encoding="UTF-8"?>
<svg width="600" height="700" viewBox="0 0 600 700" fill="none" xmlns="http://www.w3.org/2000/svg">
  <!-- Fundo do mar azul para Iemanjá -->
  <rect width="600" height="700" fill="#0066CC"/>
  
  <!-- Ondas do mar em tons de azul -->
  <path d="M0 100 C 150 50, 300 150, 600 80 L 600 0 L 0 0 Z" fill="#0078D7"/>
  <path d="M0 200 C 150 150, 350 250, 600 180 L 600 80 C 300 150, 150 50, 0 100 Z" fill="#0078D7" opacity="0.7"/>
  <path d="M0 300 C 150 250, 350 350, 600 280 L 600 180 C 350 250, 150 150, 0 200 Z" fill="#0078D7" opacity="0.5"/>
  
  <!-- Lua no céu - símbolo de Iemanjá -->
  <circle cx="450" cy="80" r="40" fill="#E6E6E6"/>
  <circle cx="440" cy="70" r="15" fill="#0078D7" opacity="0.3"/>
  
  <!-- Coroa de Iemanjá com 3 pontas -->
  <path d="M270 220 L 290 190 L 310 220 L 330 190 L 350 220 Z" fill="#FFD700"/>
  
  <!-- Forma oval central representando Iemanjá -->
  <ellipse cx="300" cy="380" rx="100" ry="160" fill="#91C9FF" opacity="0.8"/>
  
  <!-- Símbolos que representam joias/adereços -->
  <circle cx="240" cy="460" r="15" fill="#FFD700"/>
  <circle cx="360" cy="460" r="15" fill="#FFD700"/>
  <circle cx="270" cy="520" r="12" fill="#FFD700"/>
  <circle cx="330" cy="520" r="12" fill="#FFD700"/>
  
  <!-- Pequenos losangos amarelos representando estrelas do mar -->
  <path d="M160 360 L 180 340 L 200 360 L 180 380 Z" fill="#FFD700"/>
  <path d="M400 360 L 420 340 L 440 360 L 420 380 Z" fill="#FFD700"/>
  <path d="M150 460 L 170 440 L 190 460 L 170 480 Z" fill="#FFD700"/>
  <path d="M410 460 L 430 440 L 450 460 L 430 480 Z" fill="#FFD700"/>
  
  <!-- Véu/Manto que se estende abaixo -->
  <path d="M300 540 
           C 350 540, 400 580, 400 620
           C 350 600, 250 600, 200 620
           C 200 580, 250 540, 300 540 Z" fill="#91C9FF" opacity="0.6"/>
</svg>