<?xml version="1.0" encoding="UTF-8"?>
<svg width="600" height="700" viewBox="0 0 600 700" fill="none" xmlns="http://www.w3.org/2000/svg">
  <!-- Fundo do mar -->
  <rect width="600" height="700" fill="#005B9F"/>
  
  <!-- Ondas do mar -->
  <path d="M0 100 C 150 50, 300 150, 600 80 L 600 0 L 0 0 Z" fill="#0078D7"/>
  <path d="M0 200 C 150 150, 350 250, 600 180 L 600 80 C 300 150, 150 50, 0 100 Z" fill="#0078D7" opacity="0.7"/>
  <path d="M0 300 C 150 250, 350 350, 600 280 L 600 180 C 350 250, 150 150, 0 200 Z" fill="#0078D7" opacity="0.5"/>
  
  <!-- Lua no céu -->
  <circle cx="450" cy="80" r="40" fill="#E6E6E6"/>
  <circle cx="440" cy="70" r="15" fill="#0078D7" opacity="0.3"/>
  
  <!-- Estrelas do mar -->
  <path d="M80 480 L 100 450 L 120 480 L 100 510 Z" fill="#FFEB3B" transform="rotate(45, 100, 480)"/>
  <path d="M500 380 L 520 350 L 540 380 L 520 410 Z" fill="#FFEB3B" transform="rotate(45, 520, 380)"/>
  <path d="M180 580 L 200 550 L 220 580 L 200 610 Z" fill="#FFEB3B" transform="rotate(45, 200, 580)"/>
  
  <!-- Conchas -->
  <ellipse cx="150" cy="620" rx="20" ry="12" fill="#FFD700" opacity="0.8"/>
  <ellipse cx="350" cy="640" rx="25" ry="15" fill="#FFD700" opacity="0.8"/>
  <ellipse cx="450" cy="600" rx="18" ry="10" fill="#FFD700" opacity="0.8"/>
  
  <!-- Silhueta de Iemanjá -->
  <path d="M300 280 
           C 330 290, 350 300, 360 340
           C 370 380, 365 420, 355 460
           C 345 500, 340 540, 350 580
           C 250 560, 230 540, 250 500
           C 235 540, 225 580, 250 620
           C 225 580, 220 540, 240 500
           C 230 460, 225 420, 235 380
           C 245 340, 270 300, 300 280 Z" fill="#E0F7FA" opacity="0.9"/>
  
  <!-- Vestido/Manto -->
  <path d="M300 320
           C 330 340, 340 380, 340 420
           C 340 480, 330 540, 350 580
           C 370 620, 300 650, 250 620
           C 200 590, 230 540, 240 500
           C 250 460, 250 420, 260 380
           C 270 340, 290 320, 300 320 Z" fill="#1976D2" opacity="0.5"/>
  
  <!-- Aura de Iemanjá -->
  <ellipse cx="300" cy="420" rx="120" ry="180" fill="white" opacity="0.1"/>
  <ellipse cx="300" cy="420" rx="100" ry="160" fill="white" opacity="0.1"/>
  
  <!-- Coroa -->
  <path d="M270 280 L 280 260 L 290 280 L 300 260 L 310 280 L 320 260 L 330 280 Z" fill="#FFD700"/>
  
  <!-- Cabelos longos -->
  <path d="M300 300
           C 330 320, 340 340, 350 380
           C 360 420, 355 460, 370 500
           L 230 500
           C 245 460, 240 420, 250 380
           C 260 340, 270 320, 300 300 Z" fill="#0D47A1" opacity="0.7"/>
</svg>